<svg width="64" height="64" viewBox="0 0 64 64" fill="none" xmlns="http://www.w3.org/2000/svg">
<circle cx="32" cy="32" r="24" fill="#B1F1FF"/>
<path d="M31.9999 13.3333L36.1908 26.2316H49.753L38.781 34.2032L42.9719 47.1016L31.9999 39.13L21.0279 47.1016L25.2189 34.2032L14.2469 26.2316H27.809L31.9999 13.3333Z" fill="#FFF0A4"/>
<path d="M31.9733 5.33325C17.2533 5.33325 5.33325 17.2799 5.33325 31.9999C5.33325 46.7199 17.2533 58.6666 31.9733 58.6666C46.7199 58.6666 58.6666 46.7199 58.6666 31.9999C58.6666 17.2799 46.7199 5.33325 31.9733 5.33325ZM51.9199 24.4266L38.5599 23.2799L33.2266 10.7199C41.7866 11.2266 48.9866 16.7733 51.9199 24.4266ZM38.3999 41.1199L31.9999 37.2799L25.6266 41.1199L27.3066 33.8666L21.6799 28.9866L29.0933 28.3466L31.9999 21.4933L34.9066 28.3199L42.3199 28.9599L36.6933 33.8399L38.3999 41.1199ZM30.7733 10.7199L25.4399 23.3066L12.0533 24.4533C14.9866 16.7733 22.1866 11.1999 30.7733 10.7199ZM10.6666 31.9999C10.6666 30.2933 10.8799 28.6399 11.2799 27.0399L21.3866 35.7866L18.4266 48.4533C13.6799 44.5333 10.6666 38.6133 10.6666 31.9999ZM20.9066 50.1866L31.9999 43.4933L43.0933 50.1599C39.8399 52.1599 36.0533 53.3333 31.9733 53.3333C27.9199 53.3333 24.1333 52.1599 20.9066 50.1866ZM45.5733 48.4533L42.6133 35.7866L52.7199 27.0399C53.0933 28.6133 53.3333 30.2933 53.3333 31.9999C53.3333 38.6133 50.2933 44.5333 45.5733 48.4533Z" fill="#111111"/>
</svg>
