<svg width="64" height="64" viewBox="0 0 64 64" fill="none" xmlns="http://www.w3.org/2000/svg">
<path d="M42.6667 9.33325H18.6667L4 27.9999L32 55.9999L60 27.9999L42.6667 9.33325Z" fill="#B1F1FF"/>
<path fill-rule="evenodd" clip-rule="evenodd" d="M25.641 9.33325L40 22.6666L34.6667 26.6666L25.3333 18.6666L10 33.9999L4 27.9999L18.6667 9.33325H25.641Z" fill="#FFF0A4"/>
<path d="M32.592 52.9467C32.112 53.4267 31.2587 53.5067 30.6987 52.9467C30.2187 52.4667 30.1387 51.6133 30.6987 51.0533L39.7387 42.0133L35.9787 38.2533L26.9387 47.2933C26.432 47.8267 25.5787 47.8 25.0454 47.2933C24.4854 46.7333 24.5654 45.88 25.0454 45.4L34.0854 36.36L30.3254 32.6L21.2854 41.64C20.8054 42.12 19.952 42.2 19.392 41.64C18.8854 41.1333 18.8854 40.28 19.392 39.7467L28.432 30.7067L24.6454 26.9467L15.6054 35.9867C15.1254 36.4667 14.272 36.5467 13.712 35.9867C13.2054 35.4533 13.2054 34.6267 13.712 34.0933L25.392 22.4133L30.3787 27.3733C32.912 29.9067 37.2854 29.88 39.8187 27.3733C42.432 24.76 42.432 20.5467 39.8187 17.9333L34.8587 12.9733L35.6054 12.2267C37.6854 10.1467 41.072 10.1467 43.152 12.2267L54.4587 23.5333C56.5387 25.6133 56.5387 29 54.4587 31.08L32.592 52.9467ZM58.2187 34.8667C62.3787 30.7067 62.3787 23.96 58.2187 19.7733L46.912 8.46668C42.752 4.30668 36.0054 4.30668 31.8187 8.46668L31.072 9.21335L30.3254 8.46668C26.1654 4.30668 19.4187 4.30668 15.232 8.46668L5.79204 17.9067C2.00537 21.6933 1.65871 27.5867 4.72537 31.7467L8.59204 27.88C7.55204 25.88 7.89871 23.3467 9.57871 21.6667L19.0187 12.2267C21.0987 10.1467 24.4854 10.1467 26.5654 12.2267L36.0587 21.72C36.5387 22.2 36.6187 23.0533 36.0587 23.6133C35.4987 24.1733 34.6454 24.0933 34.1654 23.6133L25.392 14.8667L9.92537 30.3067C7.31204 32.8933 7.31204 37.1333 9.92537 39.7467C10.9654 40.7867 12.2987 41.4267 13.712 41.6133C13.8987 43 14.512 44.3333 15.5787 45.4C16.6454 46.4667 17.9787 47.08 19.3654 47.2667C19.552 48.6533 20.1654 49.9867 21.232 51.0533C22.2987 52.12 23.632 52.7333 25.0187 52.92C25.2054 54.36 25.8454 55.6667 26.8854 56.7067C28.1387 57.96 29.8187 58.6533 31.6054 58.6533C33.392 58.6533 35.072 57.96 36.3254 56.7067L58.2187 34.8667Z" fill="#111111"/>
</svg>
