<svg width="80" height="80" viewBox="0 0 80 80" fill="none" xmlns="http://www.w3.org/2000/svg">
<path d="M15.3489 56.2792C15.3489 59.8755 12.4336 62.7908 8.83731 62.7908C5.24104 62.7908 2.32568 59.8755 2.32568 56.2792C2.32568 52.6829 5.24104 49.7676 8.83731 49.7676C12.4336 49.7676 15.3489 52.6829 15.3489 56.2792Z" fill="#B1F1FF"/>
<path fill-rule="evenodd" clip-rule="evenodd" d="M8.83731 60.0001C10.8923 60.0001 12.5582 58.3342 12.5582 56.2792C12.5582 54.2242 10.8923 52.5583 8.83731 52.5583C6.7823 52.5583 5.11638 54.2242 5.11638 56.2792C5.11638 58.3342 6.7823 60.0001 8.83731 60.0001ZM8.83731 62.7908C12.4336 62.7908 15.3489 59.8755 15.3489 56.2792C15.3489 52.6829 12.4336 49.7676 8.83731 49.7676C5.24104 49.7676 2.32568 52.6829 2.32568 56.2792C2.32568 59.8755 5.24104 62.7908 8.83731 62.7908Z" fill="#4C59C9"/>
<path d="M51.0541 41.5538C47.9796 63.4302 40.538 80.4689 34.433 79.6109C28.328 78.7529 25.8712 60.3231 28.9458 38.4467C32.0203 16.5703 39.4618 -0.46851 45.5668 0.389498C51.6719 1.24751 54.1286 19.6774 51.0541 41.5538Z" fill="#B1F1FF"/>
<path fill-rule="evenodd" clip-rule="evenodd" d="M41.3226 67.9908C44.2029 61.3958 46.7782 51.9263 48.2905 41.1654C49.8029 30.4045 49.9375 20.592 48.9866 13.4585C48.5084 9.87166 47.7765 7.12488 46.9116 5.30478C45.9897 3.36473 45.2715 3.16611 45.1785 3.15304C45.0854 3.13996 44.3403 3.13293 42.9194 4.74372C41.5863 6.25491 40.1256 8.69352 38.6773 12.0096C35.797 18.6046 33.2217 28.0741 31.7093 38.835C30.197 49.596 30.0624 59.4085 31.0133 66.542C31.4914 70.1288 32.2234 72.8756 33.0883 74.6957C34.0102 76.6357 34.7283 76.8343 34.8214 76.8474C34.9144 76.8605 35.6595 76.8675 37.0805 75.2567C38.4135 73.7455 39.8743 71.3069 41.3226 67.9908ZM34.433 79.6109C40.538 80.4689 47.9796 63.4302 51.0541 41.5538C54.1286 19.6774 51.6719 1.24751 45.5668 0.389498C39.4618 -0.46851 32.0203 16.5703 28.9458 38.4467C25.8712 60.3231 28.328 78.7529 34.433 79.6109Z" fill="#4C59C9"/>
<path d="M38.4462 51.0541C16.5698 47.9796 -0.468949 40.538 0.389058 34.433C1.24707 28.328 19.6769 25.8712 41.5533 28.9458C63.4297 32.0203 80.4685 39.4618 79.6105 45.5669C78.7525 51.6719 60.3226 54.1286 38.4462 51.0541Z" fill="#FFF0A4"/>
<path fill-rule="evenodd" clip-rule="evenodd" d="M20.9424 24.5217C24.3795 29.792 29.9033 36.4805 36.7113 43.2886C43.5194 50.0966 50.2079 55.6204 55.4782 59.0575C58.1329 60.7889 60.3017 61.9072 61.8704 62.4332C62.1782 62.5365 62.4401 62.609 62.6594 62.6589C62.6095 62.4396 62.537 62.1777 62.4338 61.8698C61.9077 60.3012 60.7894 58.1324 59.0581 55.4777C55.6209 50.2074 50.0971 43.5189 43.2891 36.7108C36.4811 29.9028 29.7925 24.379 24.5223 20.9419C21.8675 19.2105 19.6987 18.0922 18.1301 17.5662C17.8222 17.4629 17.5603 17.3904 17.3411 17.3405C17.3909 17.5598 17.4635 17.8217 17.5667 18.1296C18.0927 19.6982 19.211 21.867 20.9424 24.5217ZM15.0048 15.0043C12.0986 17.9105 20.9334 31.4573 34.738 45.2619C48.5426 59.0665 62.0894 67.9013 64.9956 64.9951C67.9018 62.0889 59.067 48.5421 45.2624 34.7375C31.4578 20.9329 17.911 12.0981 15.0048 15.0043Z" fill="#4C59C9"/>
<path fill-rule="evenodd" clip-rule="evenodd" d="M12.0097 41.3226C18.6047 44.2029 28.0742 46.7782 38.8351 48.2905C49.596 49.8029 59.4085 49.9375 66.542 48.9866C70.1288 48.5085 72.8756 47.7765 74.6957 46.9116C76.6358 45.9897 76.8344 45.2715 76.8475 45.1785C76.8605 45.0854 76.8676 44.3403 75.2568 42.9194C73.7456 41.5863 71.307 40.1256 67.9909 38.6773C61.3958 35.797 51.9263 33.2217 41.1654 31.7093C30.4045 30.197 20.592 30.0624 13.4585 31.0133C9.87171 31.4914 7.12493 32.2234 5.30483 33.0883C3.36477 34.0102 3.16616 34.7283 3.15308 34.8214C3.14001 34.9144 3.13297 35.6595 4.74376 37.0805C6.25496 38.4135 8.69357 39.8743 12.0097 41.3226ZM0.389546 34.433C-0.468461 40.538 16.5703 47.9796 38.4467 51.0541C60.3231 54.1286 78.753 51.6719 79.611 45.5669C80.469 39.4618 63.4302 32.0203 41.5538 28.9458C19.6774 25.8712 1.24755 28.328 0.389546 34.433Z" fill="#4C59C9"/>
<path d="M57.6745 40.0001C57.6745 49.7614 49.7614 57.6745 40.0001 57.6745C30.2388 57.6745 22.3257 49.7614 22.3257 40.0001C22.3257 30.2388 30.2388 22.3257 40.0001 22.3257C49.7614 22.3257 57.6745 30.2388 57.6745 40.0001Z" fill="#8094FF"/>
<path fill-rule="evenodd" clip-rule="evenodd" d="M40.0001 54.8838C48.2202 54.8838 54.8838 48.2202 54.8838 40.0001C54.8838 31.7801 48.2202 25.1164 40.0001 25.1164C31.7801 25.1164 25.1164 31.7801 25.1164 40.0001C25.1164 48.2202 31.7801 54.8838 40.0001 54.8838ZM40.0001 57.6745C49.7614 57.6745 57.6745 49.7614 57.6745 40.0001C57.6745 30.2388 49.7614 22.3257 40.0001 22.3257C30.2388 22.3257 22.3257 30.2388 22.3257 40.0001C22.3257 49.7614 30.2388 57.6745 40.0001 57.6745Z" fill="#4C59C9"/>
<path d="M62.7908 29.3024C62.7908 34.9537 58.2095 39.5349 52.5582 39.5349C46.907 39.5349 42.3257 34.9537 42.3257 29.3024C42.3257 23.6511 46.907 19.0698 52.5582 19.0698C58.2095 19.0698 62.7908 23.6511 62.7908 29.3024Z" fill="#B1F1FF"/>
<path fill-rule="evenodd" clip-rule="evenodd" d="M52.5582 36.7442C56.6683 36.7442 60.0001 33.4124 60.0001 29.3024C60.0001 25.1924 56.6683 21.8605 52.5582 21.8605C48.4482 21.8605 45.1164 25.1924 45.1164 29.3024C45.1164 33.4124 48.4482 36.7442 52.5582 36.7442ZM52.5582 39.5349C58.2095 39.5349 62.7908 34.9537 62.7908 29.3024C62.7908 23.6511 58.2095 19.0698 52.5582 19.0698C46.907 19.0698 42.3257 23.6511 42.3257 29.3024C42.3257 34.9537 46.907 39.5349 52.5582 39.5349Z" fill="#4C59C9"/>
<path d="M74.4188 13.9535C74.4188 17.5498 71.5034 20.4651 67.9071 20.4651C64.3109 20.4651 61.3955 17.5498 61.3955 13.9535C61.3955 10.3572 64.3109 7.44189 67.9071 7.44189C71.5034 7.44189 74.4188 10.3572 74.4188 13.9535Z" fill="#FFF0A4"/>
<path fill-rule="evenodd" clip-rule="evenodd" d="M67.9071 17.6745C69.9621 17.6745 71.6281 16.0085 71.6281 13.9535C71.6281 11.8985 69.9621 10.2326 67.9071 10.2326C65.8521 10.2326 64.1862 11.8985 64.1862 13.9535C64.1862 16.0085 65.8521 17.6745 67.9071 17.6745ZM67.9071 20.4651C71.5034 20.4651 74.4188 17.5498 74.4188 13.9535C74.4188 10.3572 71.5034 7.44189 67.9071 7.44189C64.3109 7.44189 61.3955 10.3572 61.3955 13.9535C61.3955 17.5498 64.3109 20.4651 67.9071 20.4651Z" fill="#4C59C9"/>
<path d="M68.837 72.5579C68.837 75.1267 66.7546 77.2091 64.1858 77.2091C61.6171 77.2091 59.5347 75.1267 59.5347 72.5579C59.5347 69.9891 61.6171 67.9067 64.1858 67.9067C66.7546 67.9067 68.837 69.9891 68.837 72.5579Z" fill="#FFF0A4"/>
<path fill-rule="evenodd" clip-rule="evenodd" d="M64.1858 74.4184C65.2133 74.4184 66.0463 73.5854 66.0463 72.5579C66.0463 71.5304 65.2133 70.6974 64.1858 70.6974C63.1583 70.6974 62.3254 71.5304 62.3254 72.5579C62.3254 73.5854 63.1583 74.4184 64.1858 74.4184ZM64.1858 77.2091C66.7546 77.2091 68.837 75.1267 68.837 72.5579C68.837 69.9891 66.7546 67.9067 64.1858 67.9067C61.6171 67.9067 59.5347 69.9891 59.5347 72.5579C59.5347 75.1267 61.6171 77.2091 64.1858 77.2091Z" fill="#4C59C9"/>
<circle cx="73.9534" cy="67.4416" r="3.72093" fill="#4C59C9"/>
<path d="M23.7208 60.6978C23.7208 64.4225 20.7013 67.442 16.9766 67.442C13.2519 67.442 10.2324 64.4225 10.2324 60.6978C10.2324 56.9731 13.2519 53.9536 16.9766 53.9536C20.7013 53.9536 23.7208 56.9731 23.7208 60.6978Z" fill="#FFF0A4"/>
<path fill-rule="evenodd" clip-rule="evenodd" d="M16.9766 64.6513C19.1601 64.6513 20.9301 62.8813 20.9301 60.6978C20.9301 58.5143 19.1601 56.7443 16.9766 56.7443C14.7932 56.7443 13.0231 58.5143 13.0231 60.6978C13.0231 62.8813 14.7932 64.6513 16.9766 64.6513ZM16.9766 67.442C20.7013 67.442 23.7208 64.4225 23.7208 60.6978C23.7208 56.9731 20.7013 53.9536 16.9766 53.9536C13.2519 53.9536 10.2324 56.9731 10.2324 60.6978C10.2324 64.4225 13.2519 67.442 16.9766 67.442Z" fill="#4C59C9"/>
<path d="M15.349 65.1164C15.349 68.9695 12.2254 72.0931 8.37225 72.0931C4.5191 72.0931 1.39551 68.9695 1.39551 65.1164C1.39551 61.2632 4.5191 58.1396 8.37225 58.1396C12.2254 58.1396 15.349 61.2632 15.349 65.1164Z" fill="#8094FF"/>
<path fill-rule="evenodd" clip-rule="evenodd" d="M8.37225 69.3024C10.6841 69.3024 12.5583 67.4283 12.5583 65.1164C12.5583 62.8045 10.6841 60.9303 8.37225 60.9303C6.06036 60.9303 4.18621 62.8045 4.18621 65.1164C4.18621 67.4283 6.06036 69.3024 8.37225 69.3024ZM8.37225 72.0931C12.2254 72.0931 15.349 68.9695 15.349 65.1164C15.349 61.2632 12.2254 58.1396 8.37225 58.1396C4.5191 58.1396 1.39551 61.2632 1.39551 65.1164C1.39551 68.9695 4.5191 72.0931 8.37225 72.0931Z" fill="#4C59C9"/>
<path d="M12.093 18.1398C12.093 21.4792 9.38591 24.1863 6.04651 24.1863C2.70712 24.1863 0 21.4792 0 18.1398C0 14.8004 2.70712 12.0933 6.04651 12.0933C9.38591 12.0933 12.093 14.8004 12.093 18.1398Z" fill="#8094FF"/>
<path fill-rule="evenodd" clip-rule="evenodd" d="M6.04651 21.3956C7.84465 21.3956 9.30233 19.9379 9.30233 18.1398C9.30233 16.3416 7.84465 14.884 6.04651 14.884C4.24838 14.884 2.7907 16.3416 2.7907 18.1398C2.7907 19.9379 4.24838 21.3956 6.04651 21.3956ZM6.04651 24.1863C9.38591 24.1863 12.093 21.4792 12.093 18.1398C12.093 14.8004 9.38591 12.0933 6.04651 12.0933C2.70712 12.0933 0 14.8004 0 18.1398C0 21.4792 2.70712 24.1863 6.04651 24.1863Z" fill="#4C59C9"/>
<path fill-rule="evenodd" clip-rule="evenodd" d="M38.8349 48.2906C28.074 46.7783 18.6045 44.2029 12.0094 41.3226C8.69334 39.8743 6.25473 38.4136 4.74353 37.0805C3.13274 35.6596 3.13977 34.9145 3.15285 34.8215C3.16593 34.7284 3.36454 34.0102 5.30459 33.0883C7.1247 32.2235 9.87147 31.4915 13.4583 31.0133C20.5918 30.0624 30.4043 30.197 41.1652 31.7094C51.9261 33.2217 61.3956 35.797 67.9906 38.6774C71.3067 40.1256 73.7453 41.5864 75.2565 42.9195C76.8673 44.3404 76.8603 45.0855 76.8472 45.1785C76.8341 45.2716 76.6355 45.9897 74.6955 46.9116C72.8754 47.7765 70.1286 48.5085 66.5418 48.9866C59.4083 49.9375 49.5958 49.803 38.8349 48.2906ZM38.4465 51.0541C16.5701 47.9796 -0.468697 40.5381 0.389311 34.4331C1.24732 28.328 19.6772 25.8713 41.5536 28.9458C63.43 32.0204 80.4688 39.4619 79.6108 45.5669C78.7527 51.672 60.3229 54.1287 38.4465 51.0541Z" fill="#4C59C9"/>
</svg>
