<svg width="32" height="32" viewBox="0 0 32 32" fill="none" xmlns="http://www.w3.org/2000/svg">
<circle cx="16.0001" cy="15.9998" r="13.3333" fill="white"/>
<path d="M16.0001 2.6665C8.64008 2.6665 2.66675 8.63984 2.66675 15.9998C2.66675 23.3598 8.64008 29.3332 16.0001 29.3332C23.3601 29.3332 29.3334 23.3598 29.3334 15.9998C29.3334 8.63984 23.3601 2.6665 16.0001 2.6665ZM17.3334 25.3332H14.6667V22.6665H17.3334V25.3332ZM20.0934 14.9998L18.8934 16.2265C17.9334 17.1998 17.3334 17.9998 17.3334 19.9998H14.6667V19.3332C14.6667 17.8665 15.2667 16.5332 16.2267 15.5598L17.8801 13.8798C18.3734 13.3998 18.6667 12.7332 18.6667 11.9998C18.6667 10.5332 17.4667 9.33317 16.0001 9.33317C14.5334 9.33317 13.3334 10.5332 13.3334 11.9998H10.6667C10.6667 9.05317 13.0534 6.6665 16.0001 6.6665C18.9467 6.6665 21.3334 9.05317 21.3334 11.9998C21.3334 13.1732 20.8534 14.2398 20.0934 14.9998Z" fill="#80A4FF"/>
</svg>
