<svg width="80" height="80" viewBox="0 0 80 80" fill="none" xmlns="http://www.w3.org/2000/svg">
<path fill-rule="evenodd" clip-rule="evenodd" d="M40.2858 57.8278C49.0196 57.8278 56.0998 50.7476 56.0998 42.0138C56.0998 33.28 49.0196 26.1999 40.2858 26.1999C31.552 26.1999 24.4718 33.28 24.4718 42.0138C24.4718 50.7476 31.552 57.8278 40.2858 57.8278ZM40.2858 60.6185C50.5609 60.6185 58.8905 52.2889 58.8905 42.0138C58.8905 31.7388 50.5609 23.4092 40.2858 23.4092C30.0107 23.4092 21.6812 31.7388 21.6812 42.0138C21.6812 52.2889 30.0107 60.6185 40.2858 60.6185Z" fill="#4C59C9"/>
<path d="M50.5183 42.0138C50.5183 47.6651 45.9371 52.2464 40.2858 52.2464C34.6345 52.2464 30.0532 47.6651 30.0532 42.0138C30.0532 36.3625 34.6345 31.7812 40.2858 31.7812C45.9371 31.7812 50.5183 36.3625 50.5183 42.0138Z" fill="#8094FF"/>
<path fill-rule="evenodd" clip-rule="evenodd" d="M40.2858 49.4557C44.3958 49.4557 47.7276 46.1238 47.7276 42.0138C47.7276 37.9038 44.3958 34.5719 40.2858 34.5719C36.1758 34.5719 32.8439 37.9038 32.8439 42.0138C32.8439 46.1238 36.1758 49.4557 40.2858 49.4557ZM40.2858 52.2464C45.9371 52.2464 50.5183 47.6651 50.5183 42.0138C50.5183 36.3625 45.9371 31.7812 40.2858 31.7812C34.6345 31.7812 30.0532 36.3625 30.0532 42.0138C30.0532 47.6651 34.6345 52.2464 40.2858 52.2464Z" fill="#4C59C9"/>
<path fill-rule="evenodd" clip-rule="evenodd" d="M49.227 26.7949L49.2217 26.8197L49.227 26.7945L38.3082 24.4736C38.9493 21.4587 41.913 19.5342 44.928 20.175C47.9432 20.8159 49.8679 23.7797 49.227 26.7949ZM42.6071 31.0939C42.5839 31.089 42.5608 31.0839 42.5378 31.0787L42.6767 31.1082C42.6535 31.1036 42.6303 31.0988 42.6071 31.0939ZM31.3455 57.2306L31.3508 57.206L31.3455 57.231L42.2643 59.5519C41.6232 62.5668 38.6595 64.4913 35.6445 63.8505C32.6293 63.2096 30.7046 60.2458 31.3455 57.2306ZM37.9654 52.9316C37.9885 52.9365 38.0116 52.9416 38.0347 52.9468L37.8959 52.9173C37.9191 52.9219 37.9422 52.9267 37.9654 52.9316ZM61.5192 35.114C60.5666 32.1823 57.4178 30.578 54.4862 31.5305L57.9357 42.147C60.8673 41.1944 62.4717 38.0456 61.5192 35.114ZM19.0534 48.9116C18.1009 45.98 19.7053 42.8312 22.6369 41.8786L26.0864 52.4951C23.1547 53.4476 20.006 51.8433 19.0534 48.9116ZM48.6117 49.45L48.5818 49.4831L48.552 49.5163L48.6117 49.45ZM48.995 57.3656L56.4642 49.0703L56.4238 49.0339L56.4642 49.07C58.755 51.1326 58.9399 54.6617 56.8773 56.9524C54.8148 59.2431 51.2857 59.4281 48.995 57.3656ZM31.9606 34.5774L31.9906 34.5443L32.0203 34.5111L31.9606 34.5774ZM31.5774 26.6617L24.1082 34.9571L24.1486 34.9935L24.1081 34.9574C21.8174 32.8948 21.6324 29.3657 23.695 27.075C25.7576 24.7842 29.2866 24.5993 31.5774 26.6617Z" fill="#4C59C9"/>
</svg>
