<svg width="72" height="72" viewBox="0 0 72 72" fill="none" xmlns="http://www.w3.org/2000/svg">
<path fill-rule="evenodd" clip-rule="evenodd" d="M63.2854 59.4851C68.7165 53.1809 72 44.9739 72 36C72 16.1177 55.8823 0 36 0C16.1177 0 0 16.1177 0 36C0 43.3285 2.18979 50.1455 5.95075 55.8325L6.98214 53.3571L10.1071 45.8571L25.2857 9.42857L46.7143 60.8571H39.2143L25.2857 27.4286L17.6071 45.8571H27.6071L30.7321 53.3571H14.4821L10.9437 61.8493C17.4245 68.1324 26.2606 72 36 72C44.2417 72 51.8366 69.2304 57.9047 64.5713L53.4951 53.9883L52.8608 52.466L50.3287 46.389C52.7626 43.2923 54.2143 39.3871 54.2143 35.1429C54.2143 25.7949 47.1722 18.0916 38.1036 17.0487L34.9375 9.45012C35.2899 9.4358 35.6441 9.42857 36 9.42857C50.2016 9.42857 61.7143 20.9413 61.7143 35.1429C61.7143 39.7325 60.5118 44.0414 58.4048 47.7715L63.2854 59.4851Z" fill="#111111" fill-opacity="0.1"/>
</svg>
