<svg width="120" height="120" viewBox="0 0 120 120" fill="none" xmlns="http://www.w3.org/2000/svg">
<path fill-rule="evenodd" clip-rule="evenodd" d="M7.5 90H20.625L26.0938 76.875H54.5312L49.0625 63.75H31.5625L45 31.5L69.375 90H82.5L45 0L18.4375 63.75L12.9687 76.875L7.5 90Z" fill="white"/>
<path fill-rule="evenodd" clip-rule="evenodd" d="M61.8906 0.0377135L67.4313 13.3353C83.3013 15.1604 95.6249 28.641 95.6249 45C95.6249 52.4274 93.0845 59.2615 88.8252 64.6807L93.2564 75.3156L94.3664 77.9795L99.3749 90H112.5L102.958 67.1001C106.646 60.5724 108.75 53.0319 108.75 45C108.75 20.1472 88.6027 0 63.7499 0C63.1271 0 62.5073 0.0126522 61.8906 0.0377135Z" fill="white"/>
<path d="M3.3254 116.25L3.65408 114.066H10.1502L10.4789 116.25H3.3254ZM6.86348 110.18L4.83344 114.839L4.89144 115.457L3.11273 119.323H0L6.86348 105L13.727 119.323H10.5949L8.85485 115.573L8.89352 114.878L6.86348 110.18Z" fill="white"/>
<path d="M24.2977 113.022H27.2171L31.6251 119.323H28.3577L24.2977 113.022ZM21.2236 105.793H23.9883V119.323H21.2236V105.793ZM22.9056 108.151V105.793H25.767C26.8368 105.793 27.7455 105.973 28.4931 106.334C29.2407 106.695 29.8142 107.197 30.2138 107.841C30.6133 108.486 30.8131 109.24 30.8131 110.103C30.8131 110.954 30.6133 111.707 30.2138 112.365C29.8142 113.009 29.2407 113.512 28.4931 113.872C27.7455 114.233 26.8368 114.414 25.767 114.414H22.9056V112.21H25.593C26.0828 112.21 26.5017 112.133 26.8497 111.978C27.2106 111.811 27.4877 111.579 27.6811 111.282C27.8744 110.973 27.9711 110.606 27.9711 110.18C27.9711 109.755 27.8744 109.394 27.6811 109.098C27.4877 108.789 27.2106 108.557 26.8497 108.402C26.5017 108.235 26.0828 108.151 25.593 108.151H22.9056Z" fill="white"/>
<path d="M39.0129 108.286V105.793H49.0664V108.286H45.4124V119.323H42.6476V108.286H39.0129Z" fill="white"/>
<path d="M58.5408 105.793H61.3442V119.323H58.5408V105.793Z" fill="white"/>
<path d="M72.5945 114.781C72.878 115.284 73.1874 115.722 73.5225 116.095C73.8705 116.469 74.2507 116.759 74.6632 116.965C75.0756 117.171 75.5203 117.274 75.9972 117.274C76.5514 117.274 77.0025 117.133 77.3506 116.849C77.6986 116.566 77.8726 116.179 77.8726 115.689C77.8726 115.264 77.763 114.923 77.5439 114.665C77.3377 114.407 77.0219 114.182 76.5965 113.988C76.1841 113.782 75.675 113.563 75.0692 113.331C74.7469 113.215 74.3732 113.061 73.9478 112.867C73.5354 112.661 73.1423 112.403 72.7685 112.094C72.3947 111.772 72.0853 111.385 71.8404 110.934C71.5956 110.47 71.4731 109.916 71.4731 109.272C71.4731 108.499 71.6664 107.835 72.0531 107.281C72.4527 106.714 72.9876 106.282 73.6578 105.986C74.3409 105.677 75.1014 105.522 75.9392 105.522C76.8028 105.522 77.5439 105.67 78.1626 105.966C78.7941 106.25 79.3162 106.617 79.7286 107.068C80.154 107.506 80.4826 107.964 80.7146 108.441L78.5493 109.639C78.3688 109.317 78.1497 109.027 77.8919 108.769C77.647 108.499 77.3634 108.286 77.0412 108.131C76.719 107.964 76.3516 107.88 75.9392 107.88C75.3979 107.88 74.9918 108.009 74.7212 108.267C74.4505 108.512 74.3152 108.802 74.3152 109.137C74.3152 109.472 74.4247 109.768 74.6438 110.026C74.8629 110.271 75.1981 110.509 75.6492 110.741C76.1003 110.96 76.6674 111.186 77.3506 111.418C77.7888 111.572 78.2077 111.765 78.6073 111.997C79.0197 112.229 79.387 112.513 79.7093 112.848C80.0444 113.17 80.3022 113.557 80.4826 114.008C80.676 114.446 80.7726 114.955 80.7726 115.535C80.7726 116.192 80.6437 116.778 80.386 117.294C80.1282 117.809 79.7737 118.247 79.3226 118.608C78.8715 118.956 78.3624 119.22 77.7952 119.401C77.241 119.594 76.6545 119.691 76.0359 119.691C75.211 119.691 74.4376 119.536 73.7158 119.227C73.0069 118.905 72.3882 118.473 71.8598 117.932C71.3313 117.39 70.9189 116.804 70.6224 116.173L72.5945 114.781Z" fill="white"/>
<path d="M90.9305 116.25L91.2592 114.066H97.7553L98.084 116.25H90.9305ZM94.4686 110.18L92.4386 114.839L92.4966 115.457L90.7179 119.323H87.6051L94.4686 105L101.332 119.323H98.2L96.46 115.573L96.4987 114.878L94.4686 110.18Z" fill="white"/>
<path d="M117.332 105.793H120V120L110.372 110.934V119.323H107.704V105.116L117.332 114.182V105.793Z" fill="white"/>
</svg>
