<svg width="80" height="80" viewBox="0 0 80 80" fill="none" xmlns="http://www.w3.org/2000/svg">
<path fill-rule="evenodd" clip-rule="evenodd" d="M42.3256 62.7908C53.6282 62.7908 62.7908 53.6282 62.7908 42.3256C62.7908 31.0231 53.6282 21.8605 42.3256 21.8605C31.0231 21.8605 21.8605 31.0231 21.8605 42.3256C21.8605 53.6282 31.0231 62.7908 42.3256 62.7908ZM42.3256 65.5815C55.1695 65.5815 65.5815 55.1695 65.5815 42.3256C65.5815 29.4818 55.1695 19.0698 42.3256 19.0698C29.4818 19.0698 19.0698 29.4818 19.0698 42.3256C19.0698 55.1695 29.4818 65.5815 42.3256 65.5815Z" fill="#4C59C9"/>
<path fill-rule="evenodd" clip-rule="evenodd" d="M42.3257 72.0932C58.7658 72.0932 72.0932 58.7658 72.0932 42.3257C72.0932 25.8856 58.7658 12.5583 42.3257 12.5583C25.8856 12.5583 12.5583 25.8856 12.5583 42.3257C12.5583 58.7658 25.8856 72.0932 42.3257 72.0932ZM42.3257 74.8839C60.3071 74.8839 74.8839 60.3071 74.8839 42.3257C74.8839 24.3444 60.3071 9.76758 42.3257 9.76758C24.3444 9.76758 9.76758 24.3444 9.76758 42.3257C9.76758 60.3071 24.3444 74.8839 42.3257 74.8839Z" fill="#4C59C9"/>
<path d="M44.651 44.1861C44.651 49.3236 40.4862 53.4884 35.3487 53.4884C30.2112 53.4884 26.0464 49.3236 26.0464 44.1861C26.0464 39.0486 30.2112 34.8838 35.3487 34.8838C40.4862 34.8838 44.651 39.0486 44.651 44.1861Z" fill="#8094FF"/>
<path fill-rule="evenodd" clip-rule="evenodd" d="M35.3487 50.6977C38.945 50.6977 41.8603 47.7824 41.8603 44.1861C41.8603 40.5898 38.945 37.6745 35.3487 37.6745C31.7524 37.6745 28.8371 40.5898 28.8371 44.1861C28.8371 47.7824 31.7524 50.6977 35.3487 50.6977ZM35.3487 53.4884C40.4862 53.4884 44.651 49.3236 44.651 44.1861C44.651 39.0486 40.4862 34.8838 35.3487 34.8838C30.2112 34.8838 26.0464 39.0486 26.0464 44.1861C26.0464 49.3236 30.2112 53.4884 35.3487 53.4884Z" fill="#4C59C9"/>
<path d="M53.4884 34.4185C53.4884 39.5561 49.3236 43.7209 44.1861 43.7209C39.0486 43.7209 34.8838 39.5561 34.8838 34.4185C34.8838 29.281 39.0486 25.1162 44.1861 25.1162C49.3236 25.1162 53.4884 29.281 53.4884 34.4185Z" fill="#B1F1FF"/>
<path fill-rule="evenodd" clip-rule="evenodd" d="M44.1861 40.9302C47.7824 40.9302 50.6977 38.0148 50.6977 34.4185C50.6977 30.8223 47.7824 27.9069 44.1861 27.9069C40.5898 27.9069 37.6745 30.8223 37.6745 34.4185C37.6745 38.0148 40.5898 40.9302 44.1861 40.9302ZM44.1861 43.7209C49.3236 43.7209 53.4884 39.5561 53.4884 34.4185C53.4884 29.281 49.3236 25.1162 44.1861 25.1162C39.0486 25.1162 34.8838 29.281 34.8838 34.4185C34.8838 39.5561 39.0486 43.7209 44.1861 43.7209Z" fill="#4C59C9"/>
<path d="M57.6745 47.442C57.6745 52.5795 53.5097 56.7443 48.3721 56.7443C43.2346 56.7443 39.0698 52.5795 39.0698 47.442C39.0698 42.3044 43.2346 38.1396 48.3721 38.1396C53.5097 38.1396 57.6745 42.3044 57.6745 47.442Z" fill="#4C59C9"/>
<path fill-rule="evenodd" clip-rule="evenodd" d="M48.3721 53.9536C51.9684 53.9536 54.8838 51.0382 54.8838 47.442C54.8838 43.8457 51.9684 40.9303 48.3721 40.9303C44.7759 40.9303 41.8605 43.8457 41.8605 47.442C41.8605 51.0382 44.7759 53.9536 48.3721 53.9536ZM48.3721 56.7443C53.5097 56.7443 57.6745 52.5795 57.6745 47.442C57.6745 42.3044 53.5097 38.1396 48.3721 38.1396C43.2346 38.1396 39.0698 42.3044 39.0698 47.442C39.0698 52.5795 43.2346 56.7443 48.3721 56.7443Z" fill="#4C59C9"/>
<path d="M68.8372 34.4184C68.8372 38.0146 65.9219 40.93 62.3256 40.93C58.7293 40.93 55.814 38.0146 55.814 34.4184C55.814 30.8221 58.7293 27.9067 62.3256 27.9067C65.9219 27.9067 68.8372 30.8221 68.8372 34.4184Z" fill="#B1F1FF"/>
<path fill-rule="evenodd" clip-rule="evenodd" d="M62.3256 38.1393C64.3806 38.1393 66.0465 36.4734 66.0465 34.4184C66.0465 32.3634 64.3806 30.6974 62.3256 30.6974C60.2706 30.6974 58.6047 32.3634 58.6047 34.4184C58.6047 36.4734 60.2706 38.1393 62.3256 38.1393ZM62.3256 40.93C65.9219 40.93 68.8372 38.0146 68.8372 34.4184C68.8372 30.8221 65.9219 27.9067 62.3256 27.9067C58.7293 27.9067 55.814 30.8221 55.814 34.4184C55.814 38.0146 58.7293 40.93 62.3256 40.93Z" fill="#4C59C9"/>
<path d="M33.9534 26.5116C33.9534 30.1079 31.0381 33.0233 27.4418 33.0233C23.8455 33.0233 20.9302 30.1079 20.9302 26.5116C20.9302 22.9154 23.8455 20 27.4418 20C31.0381 20 33.9534 22.9154 33.9534 26.5116Z" fill="#FFF0A4"/>
<path fill-rule="evenodd" clip-rule="evenodd" d="M27.4418 30.2326C29.4968 30.2326 31.1627 28.5666 31.1627 26.5116C31.1627 24.4566 29.4968 22.7907 27.4418 22.7907C25.3868 22.7907 23.7209 24.4566 23.7209 26.5116C23.7209 28.5666 25.3868 30.2326 27.4418 30.2326ZM27.4418 33.0233C31.0381 33.0233 33.9534 30.1079 33.9534 26.5116C33.9534 22.9154 31.0381 20 27.4418 20C23.8455 20 20.9302 22.9154 20.9302 26.5116C20.9302 30.1079 23.8455 33.0233 27.4418 33.0233Z" fill="#4C59C9"/>
<path d="M43.721 62.7909C43.721 66.3872 40.8057 69.3026 37.2094 69.3026C33.6131 69.3026 30.6978 66.3872 30.6978 62.7909C30.6978 59.1947 33.6131 56.2793 37.2094 56.2793C40.8057 56.2793 43.721 59.1947 43.721 62.7909Z" fill="#B1F1FF"/>
<path fill-rule="evenodd" clip-rule="evenodd" d="M37.2094 66.5119C39.2644 66.5119 40.9303 64.8459 40.9303 62.7909C40.9303 60.7359 39.2644 59.07 37.2094 59.07C35.1544 59.07 33.4885 60.7359 33.4885 62.7909C33.4885 64.8459 35.1544 66.5119 37.2094 66.5119ZM37.2094 69.3026C40.8057 69.3026 43.721 66.3872 43.721 62.7909C43.721 59.1947 40.8057 56.2793 37.2094 56.2793C33.6131 56.2793 30.6978 59.1947 30.6978 62.7909C30.6978 66.3872 33.6131 69.3026 37.2094 69.3026Z" fill="#4C59C9"/>
<path d="M73.0233 62.3256C73.0233 65.9219 70.1079 68.8372 66.5116 68.8372C62.9154 68.8372 60 65.9219 60 62.3256C60 58.7293 62.9154 55.814 66.5116 55.814C70.1079 55.814 73.0233 58.7293 73.0233 62.3256Z" fill="#FFF0A4"/>
<path fill-rule="evenodd" clip-rule="evenodd" d="M66.5116 66.0465C68.5666 66.0465 70.2326 64.3806 70.2326 62.3256C70.2326 60.2706 68.5666 58.6047 66.5116 58.6047C64.4566 58.6047 62.7907 60.2706 62.7907 62.3256C62.7907 64.3806 64.4566 66.0465 66.5116 66.0465ZM66.5116 68.8372C70.1079 68.8372 73.0233 65.9219 73.0233 62.3256C73.0233 58.7293 70.1079 55.814 66.5116 55.814C62.9154 55.814 60 58.7293 60 62.3256C60 65.9219 62.9154 68.8372 66.5116 68.8372Z" fill="#4C59C9"/>
<path d="M18.1395 48.8373C18.1395 52.4336 15.2241 55.3489 11.6278 55.3489C8.03157 55.3489 5.11621 52.4336 5.11621 48.8373C5.11621 45.241 8.03157 42.3257 11.6278 42.3257C15.2241 42.3257 18.1395 45.241 18.1395 48.8373Z" fill="#8094FF"/>
<path fill-rule="evenodd" clip-rule="evenodd" d="M11.6278 52.5582C13.6829 52.5582 15.3488 50.8923 15.3488 48.8373C15.3488 46.7823 13.6829 45.1164 11.6278 45.1164C9.57283 45.1164 7.90691 46.7823 7.90691 48.8373C7.90691 50.8923 9.57283 52.5582 11.6278 52.5582ZM11.6278 55.3489C15.2241 55.3489 18.1395 52.4336 18.1395 48.8373C18.1395 45.241 15.2241 42.3257 11.6278 42.3257C8.03157 42.3257 5.11621 45.241 5.11621 48.8373C5.11621 52.4336 8.03157 55.3489 11.6278 55.3489Z" fill="#4C59C9"/>
<path d="M56.2791 11.6278C56.2791 15.2241 53.3638 18.1395 49.7675 18.1395C46.1712 18.1395 43.2559 15.2241 43.2559 11.6278C43.2559 8.03157 46.1712 5.11621 49.7675 5.11621C53.3638 5.11621 56.2791 8.03157 56.2791 11.6278Z" fill="#8094FF"/>
<path fill-rule="evenodd" clip-rule="evenodd" d="M49.7675 15.3488C51.8225 15.3488 53.4884 13.6829 53.4884 11.6278C53.4884 9.57283 51.8225 7.90691 49.7675 7.90691C47.7125 7.90691 46.0466 9.57283 46.0466 11.6278C46.0466 13.6829 47.7125 15.3488 49.7675 15.3488ZM49.7675 18.1395C53.3638 18.1395 56.2791 15.2241 56.2791 11.6278C56.2791 8.03157 53.3638 5.11621 49.7675 5.11621C46.1712 5.11621 43.2559 8.03157 43.2559 11.6278C43.2559 15.2241 46.1712 18.1395 49.7675 18.1395Z" fill="#4C59C9"/>
</svg>
