<svg width="120" height="36" viewBox="0 0 120 36" fill="none" xmlns="http://www.w3.org/2000/svg">
<g clip-path="url(#clip0_164_642)">
<path fill-rule="evenodd" clip-rule="evenodd" d="M95.9611 23.3359L95.3956 23.3694L95.4601 23.7341H101.752V23.3681C100.754 23.3681 100.055 22.8364 99.4891 21.6369L97.6686 16.9227H102.088V11.7375H95.6662L91.1334 0H90.6009L86.4424 11.7375H78.4873V16.9227H84.6054L82.9111 21.7048C82.4124 22.7699 81.5799 23.2361 80.5149 23.3694V23.7354H85.5759V23.3694L85.1769 23.3359C84.0121 23.2694 83.4459 22.4369 83.7121 21.272L85.2285 16.9227H95.3839L97.0929 21.4719C97.4926 22.5037 96.9931 23.2694 95.9611 23.3359ZM90.1359 2.79627L93.4521 11.7375H87.0162L90.1359 2.79627ZM66.5214 0.467285C70.7157 0.467285 73.7784 2.96368 73.7784 6.4258C73.7784 9.48821 71.1817 11.8182 67.3536 12.3843C68.2191 13.4494 70.7822 16.4788 74.0778 20.3402L74.411 20.7246C76.4801 23.1124 76.5584 23.2028 77.5402 23.2028V23.6355H76.7415C74.611 23.6355 74.2118 23.3696 71.2491 19.9407C70.3275 18.8655 69.4657 17.8627 68.687 16.9567C66.9345 14.9176 65.6029 13.3682 64.9572 12.5839H61.1622V21.4386C61.1622 22.4706 61.7946 23.2362 62.6933 23.3028L62.9597 23.3361V23.7023H57.2008V23.3361L57.4671 23.3028C58.3659 23.2362 58.9983 22.4706 58.9983 21.4386V2.76405C58.9983 1.73201 58.3659 0.966565 57.4671 0.900025L57.2008 0.86653V0.56687L66.5214 0.467285ZM65.4563 12.0514C68.9514 12.0514 71.4813 9.68786 71.4813 6.45907C71.4813 3.2966 69.3844 0.999835 66.4881 0.999835H61.1287V12.0181H65.4563V12.0514ZM52.9699 0.933203L53.2361 0.899933L53.3352 0.533512H48.4751V0.899933L48.7747 0.933203C49.8731 0.999743 50.6388 1.86522 50.6388 3.06362V17.1771C50.6388 20.6393 48.3755 23.1359 43.2831 23.1359C38.5228 23.1359 36.4591 20.4727 36.4591 16.7444V2.76397C36.4591 1.73192 37.0915 0.966473 37.9902 0.899933L38.2566 0.866438V0.500244H32.4977V0.866438L32.7639 0.899933C33.6629 0.966473 34.2952 1.73192 34.2952 2.76397V16.3128C34.2952 20.7069 36.9252 23.8692 42.9169 23.8692C48.6758 23.8692 51.2057 21.1395 51.2057 17.3781V3.06362C51.2057 1.86522 51.9378 0.999743 52.9699 0.933203ZM21.9539 23.3358L21.6875 23.3693L21.587 23.3358V23.7352H27.3131V23.3693L27.0469 23.3358C26.2147 23.2695 25.5489 22.5703 25.4491 21.6383L24.6169 2.7973C24.5836 1.76524 25.1827 0.999801 26.0484 0.933261L26.2813 0.899991V0.533569H22.5862L14.2309 21.372L14.1976 21.3387L5.27788 0.534022H1.81507V0.900448L2.08146 0.933718C2.88039 1.00026 3.47948 1.66611 3.54625 2.53136L2.84712 21.4725C2.78058 22.471 2.14823 23.2699 1.28253 23.3365L1.01636 23.37V23.736H6.10873V23.37L5.64272 23.3365C5.35409 23.3329 5.06919 23.2708 4.80538 23.1536C4.54157 23.0365 4.30434 22.8669 4.10816 22.6552C3.91197 22.4434 3.76092 22.194 3.6642 21.922C3.56748 21.6501 3.52712 21.3613 3.54557 21.0732L4.21119 3.16417C5.4567 6.01103 6.69663 8.85794 7.93556 11.7026L7.93572 11.7029L7.93606 11.7037C9.71013 15.777 11.4822 19.8457 13.2656 23.9028H13.7982L22.7195 2.19798L23.4184 21.7047C23.3519 22.6036 22.7526 23.2693 21.9539 23.3358ZM79.0498 16.3602V12.3H101.526V16.3602H79.0498ZM109.98 0.966534L110.247 0.933264L110.28 0.899994V0.533569H104.521V0.899994L104.787 0.933264C105.686 0.999804 106.318 1.76525 106.318 2.7973V21.4724C106.318 22.5043 105.686 23.27 104.787 23.3365L104.521 23.3699V23.7359H119.335L119.368 23.5028C119.567 22.4045 119.834 20.8731 120 19.7747C119.867 19.708 119.601 19.6079 119.601 19.6079L119.002 20.7396C118.236 22.1711 116.672 23.2362 115.24 23.2362H108.449V2.83056C108.449 1.79851 109.081 1.03307 109.98 0.966534Z" fill="white"/>
<path fill-rule="evenodd" clip-rule="evenodd" d="M117.888 34.3993L117.906 34.3816H118.014L118.032 34.3993C118.032 34.5152 118.042 34.6309 118.062 34.7452C118.086 34.801 118.128 34.8475 118.181 34.8778C118.263 34.9303 118.354 34.9687 118.449 34.9909C118.559 35.0205 118.672 35.0356 118.786 35.0362C118.931 35.0386 119.075 35.0091 119.207 34.95C119.327 34.8964 119.428 34.8082 119.498 34.6967C119.567 34.5842 119.603 34.4543 119.601 34.3222C119.603 34.2348 119.586 34.1481 119.552 34.068C119.521 33.9991 119.473 33.9392 119.412 33.8944C119.351 33.8501 119.282 33.8172 119.209 33.797C119.132 33.776 119.018 33.7518 118.866 33.7278C118.719 33.7041 118.604 33.6827 118.52 33.6635C118.434 33.6434 118.351 33.6138 118.271 33.5752C118.193 33.5386 118.123 33.4871 118.064 33.4236C118.007 33.3574 117.962 33.2806 117.932 33.1973C117.899 33.1057 117.881 33.0088 117.882 32.9112C117.878 32.7842 117.902 32.6578 117.952 32.5409C118.001 32.4239 118.076 32.3191 118.169 32.2336C118.383 32.0497 118.659 31.9552 118.941 31.9697C119.082 31.971 119.222 31.9869 119.36 32.017C119.503 32.0461 119.641 32.0933 119.772 32.1575L119.787 32.184C119.749 32.3747 119.729 32.5687 119.728 32.7632L119.708 32.7808H119.593L119.575 32.7652C119.573 32.5884 119.568 32.4772 119.562 32.4316C119.556 32.3863 119.489 32.3291 119.361 32.2614C119.232 32.1934 119.089 32.1586 118.943 32.1598C118.822 32.1589 118.702 32.1845 118.592 32.2349C118.484 32.283 118.397 32.3665 118.344 32.4715C118.29 32.5727 118.261 32.6858 118.26 32.8008C118.259 32.8806 118.276 32.9596 118.311 33.0314C118.341 33.094 118.386 33.1483 118.442 33.1898C118.499 33.2304 118.563 33.26 118.631 33.2774C118.702 33.2964 118.832 33.32 119.023 33.3482C119.217 33.3687 119.408 33.4135 119.592 33.4818C119.71 33.5337 119.81 33.6205 119.877 33.7307C119.951 33.8547 119.988 33.9975 119.984 34.1419C119.986 34.2936 119.952 34.4434 119.885 34.5796C119.819 34.7158 119.721 34.8346 119.601 34.9264C119.338 35.1381 119.009 35.2494 118.671 35.2403C118.395 35.2463 118.121 35.1904 117.869 35.0767L117.856 35.0479C117.878 34.8324 117.888 34.6159 117.888 34.3993ZM94.095 34.28L94.296 35.2016L94.5202 35.2009L94.6417 34.8517C94.6785 34.7485 94.728 34.6152 94.7895 34.4518L95.0265 33.8328L95.466 32.741L95.97 34.1048C96.0697 34.3788 96.1965 34.7442 96.3502 35.2009H96.576L96.822 34.2859C96.9082 33.9571 96.9682 33.7391 97.0005 33.6318L97.2285 32.8869L97.3567 32.4757C97.3762 32.3967 97.4055 32.3205 97.4452 32.2494C97.464 32.2247 97.4895 32.205 97.518 32.1919C97.572 32.1755 97.629 32.1678 97.686 32.1693L97.704 32.1537V32.0543L97.686 32.0367C97.4265 32.0484 97.2735 32.0543 97.2262 32.0543C97.1745 32.0543 97.0237 32.0484 96.7732 32.0367L96.756 32.0543V32.1516L96.7732 32.1715C96.8797 32.1705 96.9862 32.1774 97.092 32.1921C97.1085 32.1954 97.1235 32.205 97.134 32.2187C97.1437 32.2325 97.149 32.2495 97.1475 32.2666C97.1272 32.3986 97.0995 32.5293 97.0635 32.6577C97.0072 32.8831 96.96 33.0651 96.9217 33.2036L96.546 34.5231L96.0262 33.082C95.901 32.7342 95.7795 32.3754 95.6617 32.0056H95.52C95.382 32.3991 95.241 32.7756 95.0985 33.135L94.5525 34.4943L94.2052 32.9628C94.1827 32.8596 94.1557 32.7258 94.1257 32.5613C94.1055 32.4646 94.0905 32.3669 94.0807 32.2686C94.0785 32.2525 94.083 32.2364 94.092 32.223C94.101 32.2096 94.1145 32.1999 94.1302 32.1957C94.2277 32.1792 94.326 32.171 94.4242 32.1715L94.4422 32.1537V32.0565L94.4227 32.0367C94.188 32.0484 94.0095 32.0543 93.8872 32.0543C93.7237 32.0543 93.5362 32.0484 93.324 32.0367L93.306 32.0565V32.1537L93.324 32.1715C93.405 32.1774 93.4852 32.1931 93.5625 32.2186C93.6007 32.2347 93.6345 32.3164 93.6682 32.461L94.095 34.28ZM100.579 35.1596L100.599 35.1773C100.764 35.1655 100.927 35.16 101.089 35.1608C101.232 35.1605 101.398 35.1664 101.589 35.1785L101.606 35.1608V35.0458L101.587 35.0282C101.485 35.0336 101.384 35.024 101.286 34.9994C101.269 34.9937 101.254 34.9828 101.242 34.9681C101.232 34.9534 101.226 34.9357 101.226 34.9175C101.234 34.8399 101.256 34.7644 101.29 34.6943L101.531 34.1285H102.811L103.082 34.8027C103.1 34.8433 103.111 34.8866 103.114 34.9308C103.114 34.9489 103.108 34.9667 103.097 34.9808C103.086 34.9948 103.069 35.0041 103.051 35.0069C102.949 35.0229 102.846 35.03 102.742 35.0282L102.724 35.0458V35.1608L102.742 35.1785C102.987 35.1724 103.231 35.1657 103.476 35.1585C103.601 35.1585 103.742 35.1651 103.898 35.1785L103.916 35.1608V35.0458L103.898 35.0282C103.837 35.0303 103.776 35.0246 103.716 35.0114C103.69 35.0028 103.667 34.9889 103.648 34.9706C103.608 34.9166 103.575 34.8579 103.549 34.796C103.501 34.6973 103.458 34.6059 103.421 34.5218L103.295 34.2258L102.352 32.0067H102.208C102.096 32.2734 101.983 32.5401 101.87 32.8067L101.269 34.1683L101.037 34.6712C100.996 34.7692 100.947 34.8634 100.89 34.9528C100.868 34.9796 100.84 34.9995 100.807 35.0102C100.738 35.0235 100.669 35.0291 100.599 35.027L100.579 35.0447V35.1596ZM102.725 33.9372H101.607L102.171 32.6046L102.725 33.9372ZM106.825 32.0518L106.843 32.0364C107.208 32.0482 107.419 32.054 107.475 32.054C107.525 32.054 107.736 32.0482 108.108 32.0364L108.126 32.0518V32.1625L108.108 32.1778C108.007 32.1808 107.927 32.185 107.873 32.1912C107.831 32.193 107.79 32.2043 107.753 32.2242C107.737 32.2387 107.725 32.2562 107.716 32.2756C107.708 32.2951 107.703 32.3161 107.703 32.3374C107.693 32.42 107.69 32.5032 107.69 32.5864L107.687 33.0947V34.0715C107.687 34.3159 107.688 34.4869 107.69 34.5844L107.702 34.9666H108.153C108.512 34.9666 108.737 34.9623 108.826 34.9535C108.914 34.9447 109.001 34.9231 109.083 34.8892C109.112 34.8063 109.136 34.7213 109.153 34.6351C109.183 34.5025 109.199 34.4259 109.2 34.4053L109.22 34.3877H109.328L109.344 34.4053C109.326 34.5188 109.314 34.6331 109.307 34.7478C109.295 34.9171 109.289 35.0542 109.289 35.159L109.271 35.1766C108.991 35.1678 108.623 35.1633 108.168 35.1633L107.523 35.159C107.375 35.159 107.225 35.1649 107.072 35.1766L107.054 35.159V35.0859L107.072 35.0632C107.124 35.0391 107.175 35.0102 107.222 34.9771C107.241 34.8832 107.25 34.7876 107.25 34.6918C107.259 34.512 107.264 34.2954 107.264 34.0421V33.094L107.26 32.664C107.258 32.4961 107.255 32.3878 107.248 32.3392C107.246 32.3047 107.235 32.2711 107.217 32.2419C107.194 32.221 107.166 32.2072 107.136 32.2021C107.039 32.1862 106.94 32.1781 106.841 32.1778L106.824 32.1625L106.825 32.0518ZM112.328 32.0364L112.31 32.0518L112.31 32.1625L112.327 32.1778C112.426 32.1781 112.524 32.1862 112.622 32.2021C112.652 32.2072 112.679 32.2211 112.702 32.2419C112.721 32.2711 112.731 32.3046 112.733 32.3392C112.739 32.3878 112.743 32.4961 112.745 32.664L112.749 33.094V34.0421C112.749 34.2954 112.745 34.512 112.735 34.6918C112.736 34.7876 112.727 34.8832 112.708 34.9771C112.66 35.0102 112.61 35.0391 112.557 35.0632L112.539 35.0859V35.159L112.557 35.1766C112.71 35.1649 112.861 35.159 113.008 35.159L113.654 35.1633C114.109 35.1633 114.476 35.1678 114.756 35.1766L114.774 35.159C114.774 35.0542 114.78 34.9171 114.793 34.7478C114.799 34.6331 114.812 34.5188 114.83 34.4053L114.814 34.3877H114.706L114.686 34.4053C114.683 34.4257 114.668 34.5025 114.638 34.6351C114.621 34.7213 114.598 34.8063 114.569 34.8892C114.486 34.9231 114.399 34.9447 114.311 34.9535C114.222 34.9623 113.998 34.9666 113.638 34.9666H113.187L113.176 34.5844C113.173 34.4869 113.171 34.3159 113.171 34.0715V33.0947L113.176 32.5864C113.174 32.5032 113.179 32.42 113.188 32.3374C113.189 32.3161 113.193 32.2951 113.201 32.2757C113.21 32.2562 113.222 32.2387 113.238 32.2242C113.275 32.2043 113.316 32.193 113.358 32.1912C113.413 32.185 113.492 32.1808 113.594 32.1778L113.612 32.1625V32.0518L113.594 32.0364C113.222 32.0482 113.01 32.054 112.96 32.054C112.904 32.054 112.694 32.0482 112.328 32.0364ZM58.6999 34.0212V33.9548L58.6777 33.936C58.5157 33.945 58.3927 33.9494 58.3086 33.9494C58.1627 33.9492 57.9741 33.9456 57.7428 33.9383L57.607 33.934L57.5873 33.9537V34.051L57.607 34.071C57.733 34.0693 57.859 34.0769 57.9838 34.0935C58.0054 34.095 58.0264 34.1011 58.0453 34.1115C58.0643 34.122 58.0807 34.1364 58.0934 34.154C58.1136 34.2248 58.1212 34.2985 58.116 34.3719V34.6175C58.12 34.713 58.1133 34.8087 58.0963 34.9027C57.997 34.9524 57.8908 34.9869 57.7813 35.0052C57.6578 35.0292 57.5324 35.0414 57.4067 35.0418C57.1462 35.0475 56.8895 34.9793 56.6662 34.8452C56.454 34.7137 56.2843 34.5237 56.1778 34.2979C56.0638 34.062 56.0056 33.8031 56.0076 33.5411C56.0044 33.2937 56.0586 33.0489 56.166 32.8259C56.2663 32.6168 56.431 32.4453 56.6359 32.3366C56.8567 32.2214 57.103 32.1636 57.352 32.1687C57.4713 32.168 57.5904 32.1786 57.7078 32.2003C57.8211 32.2227 57.9319 32.2569 58.0381 32.3022C58.1094 32.3289 58.1776 32.363 58.2418 32.4038C58.2614 32.4174 58.2777 32.4351 58.2894 32.4558C58.2985 32.5005 58.3033 32.5461 58.3039 32.5917L58.3147 32.8259L58.3326 32.8436H58.4342L58.4519 32.8281C58.4704 32.6195 58.5014 32.4121 58.5447 32.2071L58.5293 32.1827C58.1768 32.0381 57.7985 31.9667 57.4176 31.9729C56.9227 31.9503 56.4367 32.1108 56.0526 32.4237C55.8797 32.574 55.7429 32.7614 55.6525 32.9718C55.5619 33.1823 55.5201 33.4104 55.53 33.6393C55.522 33.9444 55.6026 34.2453 55.762 34.5057C55.9136 34.746 56.1317 34.9373 56.3898 35.0562C56.6678 35.183 56.9706 35.2464 57.2761 35.2417C57.7018 35.2418 58.1239 35.1631 58.5209 35.0097L58.534 34.9871C58.5185 34.8483 58.5104 34.7089 58.5098 34.5693C58.5098 34.4557 58.513 34.3597 58.5198 34.2807C58.5214 34.2366 58.5268 34.1926 58.5363 34.1495C58.5487 34.1336 58.5646 34.1208 58.5827 34.1119L58.6911 34.0479L58.6999 34.0212ZM27.3901 34.7859L27.3061 34.9916C26.9818 35.1571 26.6225 35.2424 26.2585 35.2406C25.7843 35.2612 25.3203 35.0992 24.962 34.7879C24.7979 34.6386 24.6683 34.4552 24.5823 34.2506C24.4963 34.046 24.456 33.8251 24.4641 33.6034C24.4572 33.2914 24.5439 32.9845 24.7131 32.7223C24.8737 32.4757 25.1014 32.2801 25.3694 32.1587C25.6577 32.0308 25.9703 31.9672 26.2856 31.9722C26.481 31.9721 26.6758 31.9928 26.8668 32.034C27.0313 32.0668 27.192 32.1164 27.3464 32.182L27.362 32.2046C27.3079 32.4046 27.276 32.6099 27.2669 32.8168L27.2513 32.8345H27.1465L27.1287 32.8168L27.106 32.4412C26.9894 32.3509 26.8571 32.283 26.7158 32.2408C26.562 32.193 26.4017 32.1688 26.2405 32.1694C26.0074 32.1654 25.777 32.2204 25.5709 32.3293C25.3747 32.4349 25.2146 32.5965 25.111 32.7935C24.9955 33.0241 24.9394 33.2798 24.9475 33.5375C24.9416 33.8086 25.0079 34.0763 25.1397 34.3133C25.2626 34.5305 25.4447 34.7083 25.6648 34.8259C25.9047 34.9495 26.1717 35.0111 26.4415 35.005C26.5684 35.0053 26.6951 34.9927 26.8195 34.9674C26.9231 34.9476 27.0243 34.9165 27.1212 34.8746C27.2024 34.837 27.2798 34.7915 27.3523 34.7389L27.3901 34.7859ZM0.095121 33.0179C0.0304599 33.2178 -0.00163545 33.4266 6.41243e-05 33.6367C0.00336741 33.8312 0.0355551 34.0241 0.0955733 34.209C0.156984 34.4137 0.262603 34.6024 0.404964 34.7618C0.546378 34.9203 0.723166 35.0433 0.920992 35.1207C1.13232 35.2029 1.35741 35.2438 1.58413 35.2413C1.90324 35.2461 2.21839 35.1701 2.5003 35.0205C2.76518 34.8798 2.98301 34.6646 3.12677 34.4014C3.27526 34.1259 3.35061 33.8169 3.34563 33.504C3.35618 33.2963 3.32174 33.0887 3.24467 32.8955C3.1676 32.7022 3.04972 32.5279 2.89909 32.3844C2.56673 32.0988 2.1372 31.952 1.69955 31.9746C1.45006 31.9706 1.20223 32.016 0.970327 32.1081C0.76149 32.193 0.573376 32.322 0.418767 32.4861C0.273159 32.6374 0.162663 32.819 0.095121 33.0179ZM0.547095 34.0707C0.49151 33.8824 0.462113 33.6873 0.459733 33.4909C0.434011 33.1326 0.545233 32.778 0.770932 32.4985C0.879607 32.385 1.01147 32.2962 1.15754 32.2383C1.30361 32.1803 1.46046 32.1545 1.6174 32.1626C1.84522 32.1597 2.06989 32.2161 2.26945 32.326C2.47439 32.4455 2.63367 32.6298 2.7221 32.85C2.83094 33.1047 2.88492 33.3796 2.88052 33.6566C2.88436 33.9106 2.83703 34.1628 2.74134 34.398C2.66298 34.601 2.51976 34.7724 2.33395 34.8855C2.16258 34.9795 1.97189 35.0328 1.77664 35.0412C1.58138 35.0496 1.3868 35.013 1.20797 34.9342C1.05062 34.8567 0.913583 34.7435 0.807825 34.6035C0.686904 34.4447 0.598319 34.2637 0.547095 34.0707ZM7.64586 34.4569C7.80786 34.8868 7.89996 35.1344 7.92216 35.1994L8.14513 35.2006C8.21001 34.9906 8.31981 34.6964 8.47461 34.3179L9.16401 32.6204C9.25273 32.4214 9.30553 32.305 9.32248 32.2712C9.33448 32.2431 9.35488 32.2194 9.38083 32.2033C9.44331 32.1853 9.50826 32.1771 9.57321 32.179L9.59091 32.1614V32.0553L9.57321 32.0376C9.33298 32.0494 9.18418 32.0553 9.12666 32.0553C9.05593 32.0553 8.89168 32.0494 8.63398 32.0376L8.61403 32.0553V32.1614L8.63398 32.179C8.74258 32.1846 8.85066 32.1972 8.95761 32.2166C8.97366 32.2199 8.98798 32.2288 8.99796 32.2418C9.00793 32.2548 9.01288 32.2709 9.01191 32.2873C8.98708 32.4227 8.94861 32.5552 8.89693 32.6829C8.82028 32.9023 8.76208 33.0614 8.72226 33.1604L8.14536 34.6103L7.45367 32.8619C7.41686 32.7659 7.37484 32.6484 7.32761 32.5093C7.29835 32.4328 7.27474 32.3542 7.257 32.2741C7.25684 32.2592 7.26196 32.2447 7.27143 32.2331C7.28091 32.2216 7.29415 32.2138 7.30882 32.211C7.41448 32.1951 7.52143 32.1895 7.62816 32.1945L7.64586 32.1768V32.0537L7.62816 32.036C7.3851 32.0478 7.18985 32.0537 7.04244 32.0537C6.88477 32.0537 6.69322 32.0478 6.46779 32.036L6.44788 32.056V32.1576L6.46779 32.1775C6.6226 32.1876 6.71102 32.2071 6.73305 32.2359C6.79579 32.3524 6.84973 32.4734 6.89442 32.598L7.64586 34.4569ZM12.7809 32.0518L12.7988 32.0364C13.304 32.0453 13.6274 32.0497 13.7691 32.0497C14.2519 32.0497 14.682 32.0453 15.0591 32.0364L15.0702 32.0518C15.0231 32.2707 14.9958 32.4934 14.9883 32.7172L14.9752 32.7348H14.8668L14.8469 32.7172C14.8483 32.7054 14.8491 32.6935 14.8491 32.6816C14.8496 32.5617 14.84 32.4419 14.8203 32.3236C14.6974 32.2758 14.5674 32.2485 14.4356 32.2428C14.2713 32.2304 14.1479 32.2242 14.0653 32.2242C13.949 32.2242 13.8003 32.2323 13.6191 32.2484L13.6102 32.6022L13.6034 33.0067L13.5969 33.4552C13.756 33.4642 13.9026 33.4687 14.0366 33.4686C14.1706 33.4684 14.2838 33.4639 14.3761 33.4552C14.4306 33.4537 14.4846 33.4444 14.5363 33.4274C14.5546 33.4141 14.5672 33.3943 14.5716 33.3721C14.583 33.3247 14.5899 33.2764 14.5927 33.2278L14.6015 33.0906L14.6192 33.073H14.721L14.7387 33.0906C14.7357 33.251 14.732 33.4123 14.7276 33.5747L14.7387 34.0726L14.721 34.0903H14.6192L14.6015 34.0726L14.5861 33.94C14.5728 33.8368 14.5635 33.775 14.5574 33.7553C14.5503 33.7338 14.5357 33.7154 14.5164 33.7035C14.4643 33.6813 14.4084 33.6693 14.3519 33.6682C14.2633 33.6593 14.1417 33.6548 13.987 33.6548C13.9018 33.6548 13.7714 33.6586 13.596 33.6659C13.5884 33.7897 13.5847 33.996 13.5849 34.285C13.5849 34.5944 13.5885 34.822 13.596 34.9678H14.0034C14.3614 34.9678 14.5854 34.9634 14.6753 34.9546C14.7634 34.9461 14.8497 34.9244 14.9315 34.8904C14.9572 34.813 14.979 34.7344 14.9967 34.6548C15.0269 34.5319 15.0442 34.4551 15.0487 34.4241L15.0714 34.4085H15.1773L15.195 34.4241C15.1761 34.5339 15.1632 34.6446 15.1565 34.7557C15.1438 34.9132 15.1375 35.048 15.1377 35.1601L15.1221 35.1778C14.8408 35.1689 14.4724 35.1644 14.0169 35.1644L13.4158 35.1601C13.2758 35.1601 13.1299 35.166 12.9783 35.1778L12.9604 35.1601V35.087L12.9783 35.0644C13.0299 35.0404 13.0798 35.0126 13.1274 34.9813C13.1522 34.854 13.1625 34.7242 13.1583 34.5946C13.1664 34.3479 13.1704 34.1597 13.1704 34.0301V33.2187L13.1682 32.7172C13.1682 32.6079 13.1668 32.5192 13.1639 32.4505C13.1631 32.4013 13.158 32.3522 13.1483 32.3039C13.1442 32.2817 13.1356 32.2606 13.1229 32.2419C13.1104 32.2279 13.0944 32.2175 13.0765 32.2118C13.041 32.2009 13.0043 32.194 12.9672 32.1912L12.7992 32.1778L12.7814 32.1625L12.7809 32.0518ZM18.4446 32.0364L18.427 32.0518L18.4275 32.1632L18.4451 32.1786C18.5436 32.1789 18.642 32.187 18.7393 32.2028C18.7695 32.208 18.7974 32.2218 18.8199 32.2426C18.8385 32.2718 18.8493 32.3054 18.8509 32.34C18.8575 32.3886 18.8616 32.4968 18.8631 32.6647L18.8674 33.0948V34.118L18.8652 34.5844C18.8674 34.6863 18.8619 34.7883 18.8487 34.8893C18.8449 34.9221 18.8319 34.9531 18.8111 34.9787C18.7842 34.9974 18.753 35.0091 18.7206 35.0131C18.6297 35.026 18.5382 35.0335 18.4464 35.0358L18.4288 35.0489V35.1595L18.4464 35.1772C18.8226 35.1654 19.0333 35.1595 19.0786 35.1595C19.1374 35.1595 19.2192 35.1606 19.3239 35.1639C19.5759 35.1727 19.7056 35.1772 19.713 35.1772L19.7307 35.1595V35.0489L19.713 35.0358C19.6143 35.0353 19.5159 35.0268 19.4187 35.0102C19.3886 35.0042 19.3607 34.9902 19.338 34.9694C19.3193 34.9402 19.3083 34.9067 19.306 34.8721C19.2957 34.7649 19.2912 34.6571 19.2927 34.5494L19.2904 34.1193V33.0961C19.2756 32.8194 19.2868 32.5419 19.3237 32.2673C19.4654 32.2237 19.6129 32.202 19.7612 32.203C19.9483 32.1929 20.1334 32.2454 20.2874 32.3522C20.3529 32.4047 20.4048 32.4721 20.4386 32.5489C20.4724 32.6257 20.4873 32.7096 20.4818 32.7933C20.4867 32.8889 20.4697 32.9844 20.4321 33.0724C20.3946 33.1605 20.3376 33.2389 20.2652 33.3016C20.094 33.4326 19.8813 33.4977 19.6662 33.4849C19.6229 33.4849 19.5639 33.4829 19.4871 33.4784L19.4645 33.5463C19.7298 33.8484 19.989 34.1762 20.2424 34.5299C20.4604 34.8348 20.6202 35.0492 20.7219 35.1729C20.8458 35.1642 20.9601 35.1597 21.0646 35.1597C21.1488 35.159 21.2329 35.1634 21.3165 35.1729L21.3364 35.153V35.0491L21.3188 35.0314C21.2799 35.0323 21.2412 35.0301 21.2027 35.0249C21.1717 35.0177 21.1423 35.0053 21.1155 34.9882C21.0297 34.9116 20.9537 34.8247 20.8892 34.7295C20.7729 34.5773 20.6638 34.4325 20.562 34.2954L20.2482 33.8799C20.1405 33.7385 20.0661 33.639 20.0249 33.5816C20.2104 33.5527 20.3884 33.4877 20.5488 33.3901C20.6682 33.3133 20.7669 33.2083 20.836 33.0843C20.8988 32.9729 20.9323 32.8474 20.9334 32.7195C20.9343 32.63 20.9172 32.5411 20.883 32.4584C20.8488 32.3757 20.7983 32.3006 20.7344 32.2379C20.6018 32.1021 20.349 32.0342 19.9762 32.0342C19.9298 32.0342 19.8533 32.0355 19.7487 32.0387C19.4652 32.049 19.2405 32.0541 19.0745 32.0541C18.9241 32.0541 18.7141 32.0482 18.4446 32.0364ZM30.6664 33.0179C30.6018 33.2178 30.5697 33.4266 30.5714 33.6367C30.5747 33.8312 30.607 34.0241 30.6671 34.209C30.7285 34.4137 30.8342 34.6024 30.9765 34.7618C31.1179 34.9203 31.2947 35.0433 31.4925 35.1207C31.7039 35.2029 31.9289 35.2438 32.1556 35.2413C32.4748 35.2461 32.7899 35.1701 33.0718 35.0205C33.3368 34.8798 33.5546 34.6646 33.6983 34.4014C33.8468 34.1259 33.9221 33.817 33.9172 33.504C33.9277 33.2963 33.8932 33.0887 33.8162 32.8955C33.7391 32.7022 33.6212 32.5279 33.4706 32.3844C33.1383 32.0988 32.7088 31.952 32.2711 31.9746C32.0215 31.9706 31.7736 32.016 31.5416 32.1081C31.3328 32.193 31.1447 32.322 30.9901 32.4861C30.8447 32.6376 30.7342 32.8191 30.6664 33.0179ZM31.1184 34.0708C31.0629 33.8824 31.0336 33.6873 31.031 33.4909C31.0053 33.1326 31.1165 32.778 31.3423 32.4985C31.4509 32.385 31.5829 32.2962 31.729 32.2383C31.8751 32.1803 32.032 32.1545 32.1889 32.1626C32.4167 32.1598 32.6413 32.2161 32.8408 32.326C33.0457 32.4454 33.2051 32.6298 33.2934 32.85C33.4022 33.1047 33.4562 33.3796 33.4519 33.6566C33.4557 33.9106 33.4083 34.1628 33.3127 34.398C33.2343 34.601 33.091 34.7724 32.9053 34.8855C32.7339 34.9795 32.5432 35.0328 32.3479 35.0412C32.1527 35.0496 31.9581 35.013 31.7793 34.9342C31.622 34.8567 31.4849 34.7435 31.3791 34.6035C31.2582 34.4447 31.1696 34.2637 31.1184 34.0708ZM41.1306 32.043L41.1505 32.0606V32.169L41.1326 32.1844C41.0315 32.183 40.9305 32.1912 40.8309 32.2089C40.7969 32.2168 40.7672 32.2377 40.7481 32.267C40.7273 32.3178 40.7178 32.3726 40.7205 32.4275C40.7182 32.5071 40.7142 32.7319 40.7082 33.1017V34.1202C40.7082 34.2673 40.7105 34.4341 40.7151 34.6197C40.7112 34.7283 40.7204 34.8369 40.7427 34.9434C40.7503 34.9589 40.761 34.9728 40.7741 34.9842C40.7872 34.9956 40.8024 35.0042 40.8189 35.0097C40.9221 35.0308 41.0274 35.0401 41.1326 35.0375L41.1505 35.0529V35.1612L41.1306 35.1789C40.8905 35.1657 40.6812 35.159 40.5027 35.159C40.3821 35.159 40.1766 35.1657 39.8862 35.1789L39.8663 35.1612V35.0551L39.884 35.0375C39.9851 35.0388 40.0861 35.0306 40.1856 35.013C40.2198 35.0047 40.2495 34.9836 40.2685 34.9542C40.2897 34.9029 40.2995 34.8476 40.2972 34.7922C40.3002 34.7109 40.304 34.487 40.3083 34.1202V32.4978L39.5458 34.0937C39.3543 34.4928 39.1871 34.8685 39.0441 35.2208H38.9578C38.8752 35.0307 38.8073 34.8789 38.7541 34.7655L37.6977 32.5701V34.115C37.6977 34.2594 37.6995 34.4253 37.7031 34.6129C37.6983 34.7223 37.7076 34.8319 37.7307 34.939C37.7473 34.9701 37.7749 34.9937 37.8081 35.0053C37.9113 35.0267 38.0167 35.0356 38.122 35.0318L38.1396 35.0495V35.1556L38.1198 35.1756L37.9783 35.1687C37.8323 35.1613 37.7067 35.1579 37.6026 35.1579C37.5554 35.1579 37.3793 35.1638 37.0743 35.1756L37.0567 35.1579V35.0517L37.0743 35.0318C37.1751 35.034 37.2757 35.0265 37.3749 35.0092C37.409 35.0004 37.4385 34.9791 37.4577 34.9497C37.4791 34.9002 37.4889 34.8465 37.4865 34.7926C37.4888 34.716 37.4921 34.4896 37.4964 34.1136V33.1044C37.4964 32.9703 37.4946 32.807 37.491 32.6146C37.4954 32.5027 37.4864 32.3907 37.4643 32.2808C37.4488 32.249 37.4214 32.2246 37.3881 32.2129C37.2849 32.1913 37.1796 32.1824 37.0743 32.1864L37.0567 32.1688V32.0633L37.0766 32.0434C37.1781 32.0506 37.3152 32.0544 37.4877 32.0545C37.6497 32.0545 37.7911 32.0508 37.912 32.0434C38.0357 32.3293 38.1543 32.5879 38.2677 32.8192L39.1052 34.5393L39.8611 32.9637C40.0659 32.5377 40.2036 32.2311 40.2744 32.0441C40.4159 32.0513 40.5552 32.055 40.6922 32.0552C40.8164 32.0544 40.9625 32.0503 41.1306 32.043ZM44.6101 32.0452L44.334 32.0364L44.3152 32.0511V32.1618L44.3331 32.1772C44.4317 32.1774 44.5301 32.1855 44.6274 32.2014C44.6575 32.2066 44.6856 32.2204 44.7081 32.2412C44.7267 32.2704 44.7373 32.304 44.7389 32.3385C44.7457 32.3871 44.7498 32.4954 44.7511 32.6633L44.7557 33.0933V34.1165L44.7534 34.583C44.7555 34.6849 44.7501 34.7868 44.7369 34.8879C44.733 34.9206 44.72 34.9516 44.6993 34.9773C44.6719 34.996 44.6404 35.0079 44.6074 35.0116C44.5167 35.0245 44.4252 35.0321 44.3336 35.0343L44.3157 35.0474V35.1581L44.3336 35.1757C44.7096 35.164 44.9202 35.1581 44.9655 35.1581C45.0246 35.1581 45.1062 35.1592 45.2108 35.1624C45.4629 35.1712 45.5924 35.1757 45.5999 35.1757L45.6175 35.1581V35.0474L45.5999 35.0343C45.5013 35.0339 45.4029 35.0254 45.3057 35.0087C45.2756 35.0027 45.2477 34.9887 45.225 34.968C45.2064 34.9387 45.1953 34.9053 45.1929 34.8706C45.1828 34.7634 45.1784 34.6557 45.1798 34.5479L45.1776 34.1179V33.0947L45.1821 32.5864C45.1809 32.5032 45.1849 32.42 45.1941 32.3374C45.1941 32.3161 45.1986 32.2951 45.2072 32.2756C45.2158 32.2562 45.2283 32.2387 45.2439 32.2242C45.281 32.2043 45.3222 32.1931 45.3642 32.1912C45.4185 32.185 45.498 32.1808 45.5997 32.1778L45.6173 32.1625V32.0518L45.5997 32.0364C45.2274 32.0482 45.0162 32.054 44.9659 32.054C44.91 32.054 44.7911 32.0509 44.6101 32.0452ZM48.8237 35.1748L48.804 35.1549V35.0533L48.8237 35.0356C48.8958 35.0353 48.9679 35.0302 49.0394 35.0202C49.0783 35.0179 49.115 35.0019 49.1432 34.9749C49.1617 34.9449 49.1723 34.9108 49.1741 34.8756C49.1793 34.8303 49.1845 34.7272 49.1897 34.5662C49.1948 34.4052 49.1974 34.2903 49.1974 34.2213V32.4354C49.2018 32.3767 49.1874 32.3182 49.1564 32.2683C49.1289 32.2326 49.0892 32.2084 49.0448 32.2005C48.9651 32.1885 48.8846 32.183 48.804 32.1841L48.7861 32.1665V32.0633L48.804 32.0433C49.0073 32.0506 49.1405 32.0543 49.2039 32.0544C49.3529 32.0544 49.4751 32.0508 49.5708 32.0433L50.2758 32.9584L51.3124 34.2579C51.4378 34.4157 51.5653 34.5652 51.6949 34.7067V32.996C51.6949 32.943 51.6923 32.8299 51.6872 32.6565C51.6821 32.4831 51.6758 32.3733 51.6684 32.3271C51.6661 32.2926 51.6525 32.2596 51.6297 32.2335C51.5988 32.2125 51.563 32.1999 51.5258 32.1968C51.4573 32.1875 51.3883 32.1828 51.3191 32.1825L51.3015 32.1649V32.0633L51.3191 32.0433C51.4384 32.0506 51.6086 32.0543 51.8297 32.0544C52.0316 32.0544 52.1783 32.0508 52.2695 32.0433L52.2894 32.0633V32.1649L52.2718 32.1825C52.196 32.1822 52.1204 32.1877 52.0454 32.199C52.0265 32.2 52.0079 32.2047 51.9908 32.2129C51.9737 32.2211 51.9584 32.2326 51.9458 32.2468C51.9302 32.277 51.9209 32.31 51.9182 32.3439C51.9131 32.3866 51.908 32.4883 51.9029 32.649C51.8977 32.8095 51.8951 32.9253 51.8951 32.996V34.0459L51.8972 34.6536C51.9004 34.8525 51.9033 35.0522 51.906 35.2527C51.7805 35.2145 51.6529 35.1835 51.5237 35.1599L51.3669 34.974L50.8961 34.3994L49.3974 32.5275V34.2227C49.3974 34.2904 49.4 34.4111 49.4054 34.5848C49.4058 34.6907 49.412 34.7964 49.4241 34.9017C49.4276 34.9289 49.4374 34.955 49.4529 34.9777C49.4745 34.9971 49.5008 35.0105 49.5291 35.0166C49.6088 35.0323 49.6899 35.039 49.7711 35.0365L49.7888 35.0542V35.1581L49.7711 35.1757C49.6477 35.1632 49.5237 35.158 49.3997 35.1603C49.1807 35.1597 48.9887 35.1645 48.8237 35.1748ZM68.5587 35.1774L68.5388 35.1597V35.0448L68.5587 35.0271C68.6284 35.0292 68.6981 35.0236 68.7665 35.0103C68.7991 34.9997 68.8279 34.9797 68.8493 34.9529C68.9066 34.8636 68.9558 34.7694 68.9964 34.6713L69.2284 34.1673L69.8295 32.8057C69.943 32.5391 70.0558 32.2724 70.1679 32.0056H70.3114L71.2552 34.2248L71.3813 34.5208C71.4182 34.6048 71.4605 34.6962 71.5082 34.7949C71.5341 34.857 71.5676 34.9156 71.6078 34.9696C71.6272 34.988 71.6504 35.0019 71.6757 35.0103C71.7351 35.0235 71.7959 35.0291 71.8568 35.0271L71.8744 35.0448V35.1597L71.8568 35.1774C71.7006 35.1641 71.5599 35.1575 71.4347 35.1575C71.1901 35.1647 70.9455 35.1714 70.7009 35.1774L70.6832 35.1597V35.0448L70.7009 35.0271C70.8044 35.029 70.9079 35.0219 71.0103 35.0058C71.0282 35.0031 71.0444 34.9938 71.0558 34.9797C71.0672 34.9656 71.073 34.9479 71.072 34.9298C71.0694 34.8856 71.059 34.8423 71.0413 34.8017L70.7697 34.1274H69.4923L69.2515 34.6932C69.2172 34.7633 69.1955 34.8389 69.1874 34.9164C69.1875 34.9346 69.1933 34.9523 69.2039 34.967C69.2147 34.9818 69.2297 34.9927 69.247 34.9983C69.3452 35.0229 69.4465 35.0325 69.5475 35.0271L69.5675 35.0448V35.1597L69.5498 35.1774C69.3597 35.1653 69.1932 35.1594 69.0503 35.1597C68.8877 35.1597 68.7238 35.1656 68.5587 35.1774ZM69.5666 33.9373H70.685L70.1303 32.6047L69.5666 33.9373ZM75.3465 32.0518L75.3645 32.0364C75.7297 32.0482 75.9405 32.054 75.9967 32.054C76.0462 32.054 76.2577 32.0482 76.6305 32.0364L76.6477 32.0518V32.1625L76.6305 32.1778C76.5285 32.1808 76.449 32.185 76.3942 32.1912C76.3522 32.193 76.3117 32.2043 76.2742 32.2242C76.2585 32.2387 76.2465 32.2561 76.2375 32.2756C76.2292 32.2951 76.2247 32.3161 76.224 32.3374C76.215 32.42 76.2112 32.5032 76.212 32.5864L76.2082 33.0947V34.0715C76.2082 34.3159 76.2097 34.4869 76.212 34.5844L76.2232 34.9666H76.674C77.034 34.9666 77.2582 34.9623 77.3475 34.9535C77.436 34.9447 77.5222 34.9231 77.6047 34.8892C77.634 34.8063 77.6572 34.7214 77.6745 34.6351C77.7045 34.5025 77.7202 34.4257 77.7217 34.4053L77.742 34.3877H77.85L77.8657 34.4053C77.8477 34.5188 77.835 34.633 77.829 34.7478C77.817 34.9171 77.8102 35.0542 77.8102 35.159L77.793 35.1766C77.5132 35.1678 77.145 35.1633 76.6897 35.1633L76.0447 35.159C75.897 35.159 75.747 35.1649 75.5932 35.1766L75.576 35.159V35.0859L75.5932 35.0632C75.6465 35.0391 75.6967 35.0102 75.744 34.9771C75.7627 34.8832 75.7717 34.7876 75.771 34.6918C75.7807 34.512 75.786 34.2954 75.786 34.0421V33.094L75.7815 32.664C75.78 32.4961 75.7755 32.3878 75.7687 32.3392C75.7672 32.3047 75.7567 32.2711 75.738 32.2419C75.7155 32.2211 75.6877 32.2072 75.6577 32.2021C75.5602 32.1862 75.462 32.1781 75.3637 32.1778L75.3457 32.1625L75.3465 32.0518ZM81.4117 32.0364L81.3937 32.0518L81.3929 32.1625L81.4102 32.1778C81.5092 32.1781 81.6075 32.1862 81.7049 32.2021C81.7349 32.2072 81.7627 32.221 81.7852 32.2419C81.8039 32.2711 81.8152 32.3046 81.8167 32.3392C81.8234 32.3878 81.8272 32.4961 81.8287 32.664L81.8332 33.094V34.0421C81.8332 34.2954 81.8287 34.512 81.8189 34.6918C81.8189 34.7876 81.8099 34.8832 81.7912 34.9771C81.7439 35.0103 81.6929 35.0392 81.6404 35.0632L81.6232 35.0859V35.159L81.6404 35.1766C81.7942 35.1649 81.9442 35.159 82.0912 35.159L82.7369 35.1633C83.1922 35.1633 83.5597 35.1678 83.8402 35.1766L83.8574 35.159C83.8574 35.0542 83.8642 34.9171 83.8769 34.7478C83.8829 34.6331 83.895 34.5188 83.9129 34.4053L83.8972 34.3877H83.7892L83.769 34.4053C83.7674 34.4259 83.7517 34.5025 83.7217 34.6351C83.7044 34.7214 83.6812 34.8063 83.6519 34.8892C83.5702 34.923 83.4832 34.9447 83.3947 34.9535C83.3055 34.9623 83.0812 34.9666 82.7212 34.9666H82.2704L82.2592 34.5844C82.257 34.4869 82.2554 34.3159 82.2554 34.0715V33.0947L82.2592 32.5864C82.2584 32.5032 82.2622 32.42 82.2719 32.3374C82.2719 32.3161 82.2764 32.2951 82.2847 32.2756C82.2937 32.2561 82.3057 32.2387 82.3214 32.2242C82.3589 32.2043 82.4002 32.1931 82.4422 32.1912C82.4977 32.185 82.5757 32.1808 82.6769 32.1778L82.6949 32.1625V32.0518L82.6769 32.0364C82.3049 32.0482 82.0942 32.054 82.0439 32.054C81.9877 32.054 81.7769 32.0482 81.4117 32.0364Z" fill="white"/>
</g>
<defs>
<clipPath id="clip0_164_642">
<rect width="120" height="36" fill="white"/>
</clipPath>
</defs>
</svg>
