<svg width="64" height="64" viewBox="0 0 64 64" fill="none" xmlns="http://www.w3.org/2000/svg">
<path d="M8 10.6667H49.6667C50.219 10.6667 50.6667 11.1145 50.6667 11.6667V40.0001H8V10.6667Z" fill="#FFF0A4"/>
<path d="M8 8H42.6667V32H8V8Z" fill="#B1F1FF"/>
<path d="M39.9999 10.6666V29.3333H13.7866L10.6666 32.4533V10.6666H39.9999ZM42.6666 5.33325H7.99992C6.53325 5.33325 5.33325 6.53325 5.33325 7.99992V45.3333L15.9999 34.6666H42.6666C44.1333 34.6666 45.3333 33.4666 45.3333 31.9999V7.99992C45.3333 6.53325 44.1333 5.33325 42.6666 5.33325ZM55.9999 15.9999H50.6666V39.9999H15.9999V45.3333C15.9999 46.7999 17.1999 47.9999 18.6666 47.9999H47.9999L58.6666 58.6666V18.6666C58.6666 17.1999 57.4666 15.9999 55.9999 15.9999Z" fill="#111111"/>
</svg>
